<svg xmlns="http://www.w3.org/2000/svg" viewBox="0 0 1200 800"><defs><linearGradient id="bg" x1="0" x2="1"><stop stop-color="#061014"/><stop offset="1" stop-color="#0d3b2f"/></linearGradient><radialGradient id="g"><stop stop-color="#24eea0" stop-opacity=".55"/><stop offset="1" stop-color="#24eea0" stop-opacity="0"/></radialGradient><filter id="glow"><feGaussianBlur stdDeviation="12"/></filter></defs><rect width="1200" height="800" fill="url(#bg)"/><ellipse cx="950" cy="140" rx="320" ry="210" fill="url(#g)"/><g opacity=".28" stroke="#22eea0"><path d="M650 0v800M820 0v800M990 0v800M1160 0v800" stroke-width="2"/><path d="M600 150h600M600 330h600M600 510h600M600 690h600" stroke-width="2"/></g><g fill="#0f5d42"><ellipse cx="780" cy="590" rx="90" ry="170"/><ellipse cx="900" cy="560" rx="110" ry="190"/><ellipse cx="1030" cy="600" rx="100" ry="170"/></g><g fill="#19a96f" opacity=".8"><path d="M760 620c-60-90-20-170 35-190-4 58 26 89 60 118-38 7-65 30-95 72z"/><path d="M920 610c-70-110-15-190 50-220-12 72 30 112 70 145-44 10-83 34-120 75z"/><path d="M1030 630c-45-85-4-155 45-182-2 55 22 88 62 120-40 10-72 28-107 62z"/></g><g transform="translate(705 70)"><rect width="390" height="88" rx="14" fill="#101b1f" stroke="#3f5b59"/><rect x="28" y="68" width="330" height="8" fill="#22eea0" filter="url(#glow)"/><rect x="28" y="68" width="330" height="4" fill="#22eea0"/></g><g opacity=".6"><circle cx="730" cy="190" r="5" fill="#22eea0"/><circle cx="850" cy="210" r="4" fill="#19bfe6"/><circle cx="1030" cy="205" r="5" fill="#efc629"/></g></svg>